<svg width="29" height="24" viewBox="0 0 29 24" fill="none" xmlns="http://www.w3.org/2000/svg">
<path d="M28.5 3.31885C27.4703 3.77512 26.3642 4.08341 25.2013 4.22275C26.4012 3.5048 27.2988 2.37483 27.7268 1.04368C26.5995 1.71327 25.3658 2.18459 24.0791 2.43714C23.2139 1.51335 22.0679 0.901036 20.8191 0.695282C19.5702 0.489527 18.2884 0.701839 17.1725 1.29925C16.0567 1.89667 15.1693 2.84576 14.6482 3.99919C14.127 5.15261 14.0012 6.44582 14.2904 7.67805C12.0062 7.56336 9.77163 6.96966 7.73174 5.93549C5.69185 4.90131 3.89221 3.44976 2.44962 1.67505C1.95635 2.52593 1.67273 3.51245 1.67273 4.5631C1.67218 5.50893 1.9051 6.44026 2.35081 7.27448C2.79653 8.1087 3.44127 8.82 4.22783 9.34527C3.31563 9.31625 2.42356 9.06977 1.62587 8.62635V8.70033C1.62578 10.0269 2.08464 11.3126 2.92461 12.3394C3.76457 13.3661 4.93389 14.0706 6.23417 14.3334C5.38796 14.5624 4.50077 14.5961 3.63961 14.432C4.00647 15.5735 4.72108 16.5716 5.6834 17.2867C6.64572 18.0018 7.80757 18.3981 9.0063 18.4201C6.97139 20.0175 4.45829 20.884 1.87127 20.8802C1.413 20.8803 0.955128 20.8536 0.5 20.8C3.12597 22.4884 6.18279 23.3845 9.30472 23.381C19.8729 23.381 25.6502 14.6281 25.6502 7.03681C25.6502 6.79018 25.644 6.54108 25.6329 6.29445C26.7567 5.48177 27.7267 4.47542 28.4975 3.32255L28.5 3.31885Z" fill="white"/>
</svg>
