<svg width="28" height="28" viewBox="0 0 28 28" fill="none" xmlns="http://www.w3.org/2000/svg">
<path d="M23.8018 4.07053C22.5181 2.77496 20.9894 1.74783 19.3048 1.04898C17.6202 0.350141 15.8133 -0.00643851 13.9895 2.52933e-05C6.34725 2.52933e-05 0.119 6.22653 0.112 13.8705C0.112 16.3188 0.7525 18.7005 1.96175 20.8093L0 28L7.357 26.0715C9.39226 27.1791 11.6724 27.7597 13.9895 27.7603H13.9965C21.6405 27.7603 27.867 21.5338 27.874 13.8828C27.8757 12.0594 27.5167 10.2536 26.8175 8.56956C26.1183 6.88552 25.0927 5.35648 23.8 4.07053H23.8018ZM13.9895 25.4118C11.9227 25.4125 9.89398 24.8563 8.1165 23.8018L7.6965 23.5498L3.332 24.6943L4.4975 20.4365L4.2245 19.9973C3.06916 18.1603 2.45813 16.0336 2.46225 13.8635C2.46225 7.51802 7.637 2.34153 13.9965 2.34153C15.5115 2.33881 17.0121 2.63601 18.4118 3.21599C19.8114 3.79597 21.0824 4.64725 22.1515 5.72078C23.2243 6.79011 24.0748 8.06127 24.6539 9.46093C25.233 10.8606 25.5292 12.3611 25.5255 13.8758C25.5185 20.244 20.3438 25.4118 13.9895 25.4118ZM20.3158 16.7773C19.971 16.604 18.2682 15.7658 17.948 15.6468C17.6295 15.533 17.3967 15.4735 17.1693 15.82C16.9365 16.1648 16.2715 16.9505 16.072 17.1763C15.8725 17.409 15.666 17.4353 15.3195 17.2638C14.9747 17.0888 13.8565 16.7248 12.5335 15.54C11.501 14.6213 10.8097 13.4838 10.6033 13.139C10.4038 12.7925 10.584 12.607 10.7572 12.4338C10.9095 12.2798 11.102 12.0278 11.2752 11.8283C11.4502 11.6288 11.508 11.4818 11.6217 11.2508C11.7355 11.0163 11.6812 10.8168 11.5955 10.6435C11.508 10.4703 10.8167 8.76052 10.5245 8.07102C10.2445 7.39028 9.95925 7.48477 9.74575 7.47602C9.54625 7.46377 9.3135 7.46377 9.08075 7.46377C8.90499 7.46814 8.73202 7.5088 8.57271 7.58318C8.41341 7.65756 8.27119 7.76407 8.155 7.89603C7.8365 8.24253 6.94575 9.08077 6.94575 10.7905C6.94575 12.5003 8.18825 14.1435 8.36325 14.3763C8.53475 14.609 10.8027 18.1073 14.2835 19.6123C15.106 19.971 15.7535 20.1828 16.2593 20.3438C17.0905 20.6098 17.8412 20.5695 18.4397 20.4838C19.1047 20.3823 20.489 19.6438 20.7812 18.8335C21.0683 18.0215 21.0683 17.3285 20.9808 17.1833C20.895 17.0363 20.6623 16.9505 20.3158 16.7773Z" fill="white"/>
</svg>
