<svg width="165" height="40" viewBox="0 0 165 40" fill="none" xmlns="http://www.w3.org/2000/svg">
<path fill-rule="evenodd" clip-rule="evenodd" d="M64.7385 28.9652L64.683 12.1206C64.6743 9.41719 63.054 6.98626 60.5751 5.90761C41.1582 -2.54018 20.5572 -1.26424 1.01483 6.88875C-0.083472 7.34681 -0.352568 8.78073 0.515948 9.59406L12.2757 20.6085C12.8235 21.123 13.4955 21.4865 14.226 21.6635C14.9564 21.8405 15.7203 21.825 16.4429 21.6183C32.9024 16.8816 50.9916 17.433 64.7385 28.9652Z" fill="#001965"/>
<path fill-rule="evenodd" clip-rule="evenodd" d="M27.0824 20.9759C25.5918 22.0999 24.1276 23.2896 22.6952 24.5599C20.9827 26.0785 20.9725 28.7551 22.643 30.3183L31.1426 38.2781C33.2765 40.2771 36.5431 40.3799 38.8323 38.5604C45.4679 33.2878 52.7406 30.2858 61.2633 29.2706C61.3644 29.2592 61.4598 29.2175 61.5367 29.1508C61.6137 29.0842 61.6686 28.9958 61.6944 28.8973C61.7201 28.7989 61.7154 28.6949 61.6809 28.5991C61.6464 28.5034 61.5837 28.4203 61.501 28.3609C54.1757 23.0357 45.3556 20.3334 35.2324 20.3334C32.6521 20.3334 30.0107 20.5223 27.3269 20.875C27.2381 20.887 27.1539 20.9218 27.0824 20.9759Z" fill="#001965"/>
<path d="M70.3796 0.166321H76.0193C76.9591 0.166321 77.6808 0.399134 78.1842 0.86476C78.6876 1.33039 78.9396 1.90675 78.9401 2.59385C78.9401 3.17034 78.7606 3.66469 78.4015 4.0769C78.1619 4.35179 77.8115 4.56898 77.3504 4.72847C78.0512 4.89704 78.5665 5.18679 78.8966 5.59774C79.2267 6.00869 79.3915 6.52383 79.391 7.14315C79.391 7.64859 79.2736 8.103 79.0387 8.50639C78.8078 8.90551 78.475 9.23604 78.0742 9.4641C77.8222 9.61049 77.441 9.71682 76.9305 9.78309C76.252 9.87203 75.802 9.91637 75.5805 9.91612H70.3796V0.166321ZM73.4191 3.99035H74.729C75.1992 3.99035 75.5267 3.90947 75.7117 3.74771C75.8966 3.58595 75.9886 3.352 75.9876 3.04587C75.9876 2.76241 75.8956 2.54081 75.7117 2.38107C75.5277 2.22132 75.2074 2.14145 74.7506 2.14145H73.4206L73.4191 3.99035ZM73.4191 7.8208H74.9554C75.474 7.8208 75.8393 7.72884 76.0514 7.54491C76.2636 7.36097 76.3701 7.1138 76.3708 6.80338C76.3708 6.51539 76.2655 6.28371 76.0548 6.10834C75.8442 5.93298 75.4751 5.84479 74.9475 5.84378H73.4179L73.4191 7.8208Z" fill="#001965"/>
<path d="M86.9595 0.166321H89.9656V5.97493C89.969 6.53014 89.8779 7.08188 89.6961 7.60651C89.5203 8.11231 89.2315 8.5714 88.8518 8.94897C88.4681 9.33245 88.0659 9.60167 87.6454 9.75663C87.0599 9.97357 86.3571 10.082 85.5372 10.082C85.0181 10.0792 84.4995 10.046 83.9843 9.98264C83.4234 9.91587 82.9545 9.78397 82.5776 9.58693C82.1825 9.37516 81.8315 9.08986 81.5435 8.74639C81.2308 8.38331 81.0167 8.00889 80.901 7.62314C80.7146 7.00281 80.6215 6.45341 80.6217 5.97493V0.166321H83.6275V6.11326C83.6275 6.6449 83.775 7.06063 84.0701 7.36047C84.3651 7.6603 84.7741 7.80972 85.2969 7.80871C85.8157 7.80871 86.2225 7.66144 86.5173 7.36689C86.812 7.07235 86.9595 6.65485 86.9595 6.11439V0.166321Z" fill="#001965"/>
<path d="M91.4355 6.68959L94.3019 6.51007C94.3639 6.9757 94.4898 7.33033 94.6798 7.57398C94.9902 7.96906 95.4336 8.16634 96.0098 8.16584C96.4399 8.16584 96.7714 8.06505 97.0042 7.86348C97.237 7.66192 97.3534 7.42797 97.3534 7.16164C97.3534 6.90968 97.2425 6.68367 97.0208 6.48361C96.7991 6.28356 96.2847 6.09459 95.4777 5.9167C94.1564 5.61964 93.2143 5.22506 92.6514 4.73298C92.0857 4.24241 91.8029 3.61578 91.8029 2.85309C91.8029 2.35194 91.9482 1.87863 92.2387 1.43316C92.5292 0.987691 92.966 0.637464 93.549 0.382478C94.1305 0.127493 94.929 0 95.9444 0C97.1896 0 98.1398 0.231679 98.7949 0.695037C99.45 1.1584 99.839 1.89551 99.962 2.90638L97.1225 3.0723C97.0469 2.63363 96.8884 2.31452 96.647 2.11497C96.4056 1.91542 96.0717 1.81513 95.6451 1.81413C95.2949 1.81413 95.0311 1.88833 94.8537 2.03674C94.6763 2.18514 94.5881 2.36592 94.5891 2.57908C94.5891 2.73404 94.6623 2.87363 94.8087 2.99784C94.9506 3.12635 95.2876 3.24603 95.8197 3.35689C97.1365 3.64085 98.0797 3.92796 98.6494 4.21822C99.2191 4.50848 99.6329 4.86917 99.8909 5.30027C100.152 5.73608 100.286 6.23578 100.28 6.74364C100.283 7.35873 100.102 7.96073 99.7613 8.47273C99.4151 9.00034 98.9317 9.40045 98.3111 9.67308C97.6905 9.9457 96.9081 10.082 95.9637 10.082C94.3053 10.082 93.157 9.76278 92.5187 9.1243C91.8805 8.48583 91.5195 7.67426 91.4355 6.68959Z" fill="#001965"/>
<path d="M101.917 0.166321H104.936V9.91725H101.917V0.166321Z" fill="#001965"/>
<path d="M107.117 0.166321H109.93L113.601 5.56033V0.166321H116.441V9.91725H113.601L109.95 4.56407V9.91574H107.115L107.117 0.166321Z" fill="#001965"/>
<path d="M118.436 0.166321H126.51V2.24803H121.456V3.7976H126.144V5.78596H121.456V7.7078H126.657V9.91574H118.436V0.166321Z" fill="#001965"/>
<path d="M127.754 6.68959L130.62 6.51007C130.682 6.9757 130.808 7.33033 130.998 7.57398C131.308 7.96906 131.752 8.16634 132.328 8.16584C132.758 8.16584 133.089 8.06505 133.322 7.86348C133.555 7.66192 133.672 7.42797 133.671 7.16164C133.671 6.90968 133.561 6.68367 133.339 6.48361C133.117 6.28356 132.603 6.09459 131.796 5.9167C130.475 5.61964 129.533 5.22506 128.969 4.73298C128.402 4.2409 128.118 3.61351 128.118 2.85083C128.118 2.34967 128.264 1.87636 128.554 1.43089C128.845 0.985424 129.281 0.635196 129.864 0.380211C130.448 0.126737 131.247 0 132.263 0C133.508 0 134.458 0.231679 135.112 0.695037C135.767 1.1584 136.156 1.89551 136.28 2.90638L133.44 3.0723C133.364 2.63363 133.206 2.31452 132.964 2.11497C132.723 1.91542 132.389 1.81513 131.963 1.81413C131.613 1.81413 131.349 1.88833 131.172 2.03674C130.995 2.18514 130.907 2.36592 130.907 2.57908C130.907 2.73404 130.981 2.87363 131.127 2.99784C131.269 3.12635 131.606 3.24603 132.138 3.35689C133.454 3.64085 134.398 3.92796 134.968 4.21822C135.538 4.50848 135.952 4.86866 136.211 5.29876C136.472 5.73453 136.607 6.23423 136.6 6.74213C136.603 7.35729 136.423 7.95933 136.082 8.47122C135.736 8.99883 135.253 9.39894 134.632 9.67157C134.011 9.94419 133.228 10.0805 132.284 10.0805C130.626 10.0805 129.477 9.76126 128.839 9.12279C128.201 8.48432 127.839 7.67325 127.754 6.68959Z" fill="#001965"/>
<path d="M137.589 6.68959L140.456 6.51007C140.518 6.9757 140.644 7.33033 140.834 7.57398C141.144 7.96906 141.587 8.16634 142.164 8.16584C142.594 8.16584 142.925 8.06505 143.158 7.86348C143.391 7.66192 143.507 7.42797 143.507 7.16164C143.507 6.90968 143.396 6.68367 143.174 6.48361C142.953 6.28356 142.438 6.09459 141.632 5.9167C140.31 5.61964 139.368 5.22506 138.805 4.73298C138.238 4.2409 137.954 3.61351 137.954 2.85083C137.954 2.34967 138.099 1.87636 138.39 1.43089C138.68 0.985424 139.117 0.635196 139.7 0.380211C140.284 0.126737 141.083 0 142.099 0C143.344 0 144.294 0.231679 144.948 0.695037C145.603 1.1584 145.992 1.89551 146.116 2.90638L143.276 3.0723C143.2 2.63363 143.042 2.31452 142.8 2.11497C142.559 1.91542 142.225 1.81513 141.799 1.81413C141.449 1.81413 141.185 1.88833 141.008 2.03674C140.831 2.18514 140.743 2.36592 140.743 2.57908C140.743 2.73404 140.817 2.87363 140.963 2.99784C141.105 3.12635 141.442 3.24603 141.974 3.35689C143.291 3.64085 144.234 3.92796 144.804 4.21822C145.373 4.50848 145.788 4.86866 146.047 5.29876C146.308 5.73446 146.443 6.23421 146.436 6.74213C146.439 7.35729 146.259 7.95933 145.917 8.47122C145.572 8.99883 145.089 9.39894 144.468 9.67157C143.847 9.94419 143.064 10.0805 142.12 10.0805C140.462 10.0805 139.314 9.76126 138.675 9.12279C138.037 8.48432 137.675 7.67325 137.589 6.68959Z" fill="#001965"/>
<path d="M70.4928 15.1246H73.5122V24.8756H70.4928V15.1246Z" fill="#001965"/>
<path d="M75.6937 15.1246H78.5067L82.1777 20.5186V15.1246H85.0176V24.8756H82.1777L78.5267 19.5224V24.8744H75.6921L75.6937 15.1246Z" fill="#001965"/>
<path d="M87.0406 15.1246H89.854L93.525 20.5186V15.1246H96.3648V24.8756H93.525L89.874 19.5224V24.8744H87.0394L87.0406 15.1246Z" fill="#001965"/>
<path d="M97.9858 20.0061C97.9858 18.4144 98.4293 17.1753 99.3162 16.2886C100.203 15.4019 101.438 14.9586 103.02 14.9586C104.642 14.9586 105.893 15.3941 106.771 16.2652C107.649 17.1362 108.088 18.3566 108.088 19.9263C108.088 21.0657 107.896 22.0001 107.512 22.7295C107.138 23.4489 106.56 24.0414 105.849 24.4321C105.124 24.8376 104.221 25.0404 103.139 25.0406C102.04 25.0406 101.13 24.8655 100.409 24.5153C99.6889 24.1651 99.1048 23.6107 98.6571 22.8523C98.2098 22.0944 97.9861 21.1457 97.9858 20.0061ZM100.998 20.0193C100.998 21.0037 101.181 21.711 101.547 22.1411C101.913 22.5712 102.411 22.7862 103.04 22.7862C103.688 22.7862 104.188 22.5756 104.543 22.1543C104.898 21.733 105.075 20.9771 105.075 19.8866C105.075 18.9687 104.89 18.2981 104.52 17.8748C104.15 17.4515 103.648 17.2398 103.014 17.2395C102.406 17.2395 101.918 17.4546 101.551 17.8847C101.183 18.3148 100.999 19.0263 100.998 20.0193Z" fill="#001965"/>
<path d="M108.168 15.1246H111.317L113.511 22.1411L115.677 15.1246H118.735L115.115 24.8756H111.85L108.168 15.1246Z" fill="#001965"/>
<path d="M124.935 23.2651H121.515L121.04 24.8744H117.964L121.63 15.1234H124.918L128.581 24.8744H125.427L124.935 23.2651ZM124.311 21.1565L123.234 17.6519L122.17 21.1565H124.311Z" fill="#001965"/>
<path d="M127.913 15.1246H137.071V17.5321H133.998V24.8744H130.986V17.5321H127.913V15.1246Z" fill="#001965"/>
<path d="M138.554 15.1246H141.574V24.8756H138.554V15.1246Z" fill="#001965"/>
<path d="M143.354 20.0061C143.354 18.4144 143.798 17.1753 144.684 16.2886C145.571 15.4019 146.806 14.9586 148.388 14.9586C150.011 14.9586 151.262 15.3941 152.139 16.2652C153.017 17.1362 153.456 18.3566 153.456 19.9263C153.456 21.0657 153.264 22.0001 152.881 22.7295C152.507 23.4489 151.928 24.0413 151.218 24.4321C150.493 24.8376 149.59 25.0404 148.508 25.0406C147.408 25.0406 146.498 24.8655 145.778 24.5153C145.058 24.1651 144.474 23.6107 144.026 22.8523C143.578 22.0944 143.354 21.1457 143.354 20.0061ZM146.367 20.0193C146.367 21.0037 146.55 21.711 146.916 22.1411C147.282 22.5712 147.779 22.7862 148.409 22.7862C149.056 22.7862 149.557 22.5756 149.912 22.1543C150.266 21.733 150.444 20.9771 150.444 19.8866C150.444 18.9687 150.259 18.2981 149.888 17.8748C149.518 17.4515 149.016 17.2398 148.382 17.2395C147.775 17.2395 147.287 17.4546 146.919 17.8847C146.551 18.3148 146.368 19.0263 146.369 20.0193H146.367Z" fill="#001965"/>
<path d="M155.1 15.1246H157.913L161.585 20.5186V15.1246H164.424V24.8756H161.585L157.933 19.5224V24.8744H155.099L155.1 15.1246Z" fill="#001965"/>
<path d="M75.2747 36.3015V34.273H79.9302V38.4304C79.039 39.0379 78.2509 39.4512 77.5658 39.6704C76.8807 39.8896 76.0683 39.9995 75.1284 40C73.9712 40 73.0279 39.8027 72.2988 39.4081C71.5696 39.0136 71.0043 38.4252 70.6029 37.6432C70.2015 36.8621 70.0009 35.9665 70.0009 34.9564C70.0009 33.8923 70.2203 32.9669 70.6592 32.18C71.0982 31.3931 71.7407 30.7957 72.5868 30.3878C73.2474 30.0728 74.1363 29.9153 75.2535 29.9153C76.3309 29.9153 77.1372 30.0129 77.6724 30.2079C78.1869 30.3898 78.6452 30.7024 79.0024 31.1149C79.3551 31.5254 79.6197 32.0453 79.7961 32.6747L76.8897 33.1932C76.7697 32.8254 76.5669 32.5439 76.2812 32.3489C75.9954 32.1539 75.6307 32.0563 75.187 32.056C74.5264 32.056 73.9999 32.2856 73.6076 32.7446C73.2153 33.2037 73.0191 33.9304 73.0191 34.9246C73.0191 35.9801 73.2175 36.7338 73.6144 37.1858C74.0112 37.6379 74.5643 37.8646 75.2736 37.8661C75.6011 37.8674 75.9269 37.8177 76.2392 37.7187C76.5448 37.6212 76.8951 37.4549 77.2899 37.2199V36.3015H75.2747Z" fill="#001965"/>
<path d="M87.7129 38.2233H84.2925L83.8174 39.8329H80.7413L84.4074 30.082H87.6936L91.3574 39.8329H88.2023L87.7129 38.2233ZM87.0878 36.1151L86.0118 32.6104L84.9467 36.1151H87.0878Z" fill="#001965"/>
<path d="M92.3531 39.833V30.0844H97.3741C98.3064 30.0844 99.0181 30.1642 99.5091 30.324C99.9942 30.4782 100.413 30.7909 100.7 31.2118C101.002 31.6441 101.153 32.1706 101.153 32.7912C101.153 33.3319 101.038 33.798 100.807 34.1896C100.575 34.5833 100.247 34.9117 99.8531 35.1443C99.5956 35.2997 99.2428 35.4283 98.7948 35.5301C99.1539 35.6498 99.4153 35.7696 99.5791 35.8896C99.6902 35.9694 99.8508 36.1403 100.061 36.402C100.271 36.6638 100.412 36.8654 100.483 37.0068L101.942 39.8319H98.5378L96.9274 36.8522C96.7236 36.4667 96.5419 36.2162 96.3824 36.1008C96.1659 35.9501 95.9077 35.8708 95.6439 35.8741H95.3793V39.8311L92.3531 39.833ZM95.379 34.0339H96.6492C96.7868 34.0339 97.0529 33.9895 97.4475 33.9008C97.6429 33.8634 97.8172 33.7542 97.9361 33.5947C98.0619 33.4328 98.1286 33.2328 98.1251 33.0278C98.1251 32.7133 98.0253 32.4717 97.8258 32.3029C97.6262 32.1341 97.2516 32.0499 96.7018 32.0504H95.379V34.0339Z" fill="#001965"/>
<path d="M108.901 38.2233H105.481L105.006 39.8329H101.932L105.598 30.082H108.886L112.549 39.8329H109.394L108.901 38.2233ZM108.276 36.1151L107.2 32.6104L106.135 36.1151H108.276Z" fill="#001965"/>
<path d="M118.157 36.3015V34.273H122.812V38.4304C121.921 39.0379 121.133 39.4512 120.448 39.6704C119.763 39.8896 118.95 39.9995 118.011 40C116.854 40 115.911 39.8027 115.181 39.4081C114.451 39.0136 113.886 38.4252 113.485 37.6432C113.084 36.8621 112.883 35.9665 112.883 34.9564C112.883 33.8923 113.103 32.9669 113.542 32.18C113.981 31.3931 114.623 30.7957 115.469 30.3878C116.13 30.0728 117.019 29.9153 118.136 29.9153C119.214 29.9153 120.02 30.0129 120.555 30.2079C121.07 30.3897 121.528 30.7023 121.885 31.1149C122.238 31.5254 122.503 32.0453 122.679 32.6747L119.772 33.1932C119.653 32.8254 119.45 32.5439 119.164 32.3489C118.878 32.1539 118.513 32.057 118.07 32.0583C117.409 32.0583 116.883 32.2878 116.49 32.7469C116.098 33.206 115.902 33.9319 115.902 34.9246C115.902 35.9801 116.1 36.7338 116.497 37.1858C116.894 37.6379 117.447 37.8646 118.156 37.8661C118.483 37.8676 118.809 37.8183 119.121 37.7199C119.426 37.6224 119.776 37.4561 120.171 37.221V36.3015H118.157Z" fill="#001965"/>
<path d="M124.595 30.0844H132.668V32.1661H127.614V33.7156H132.301V35.704H127.614V37.6262H132.815V39.8342H124.595V30.0844Z" fill="#001965"/>
</svg>
