<?xml version="1.0" encoding="utf-8"?>
<!-- Generator: Adobe Illustrator 24.1.2, SVG Export Plug-In . SVG Version: 6.00 Build 0)  -->
<svg version="1.1" id="Layer_1" xmlns="http://www.w3.org/2000/svg" xmlns:xlink="http://www.w3.org/1999/xlink" x="0px" y="0px"
	 viewBox="0 0 600 426" style="enable-background:new 0 0 600 426;" xml:space="preserve">
<style type="text/css">
	.st0{fill:#FFFFFF;}
</style>
<g>
	<g>
		<path class="st0" d="M148.917099,132.688141c4.483185,6.378891,13.430664-4.229919,12.643112-6.199226
			C160.774872,124.526131,144.475021,126.32299,148.917099,132.688141z"/>
		<path class="st0" d="M185.835297,88.868317c24.38298,0,44.146347-19.80069,44.146347-44.168736
			c0-24.382977-19.763367-44.153667-44.146347-44.153667s-44.153244,19.770691-44.153244,44.153667
			C141.682053,69.067627,161.452316,88.868317,185.835297,88.868317z M187.061996,10.008567
			c16.58432,0,30.022858,13.453992,30.022858,30.038013c0,16.59124-13.438538,30.030361-30.022858,30.030361
			c-16.591385,0-30.068787-13.439121-30.068787-30.030361C156.99321,23.462559,170.470612,10.008567,187.061996,10.008567z"/>
		<path class="st0" d="M411.295868,169.014908c-6.051605-28.450562-30.337189-29.030746-43.467072-28.025513
			c-13.509491,1.034286-39.113373,4.895248-65.382812,4.895248c-35.640381,0-76.709885-10.405045-107.368347-24.644562
			c-5.30658-2.464668-1.907486-3.509674,0.507111-4.82077c11.491882-6.23996,21.445801-11.723366,27.523224-21.613434
			c4.652298-7.572342,3.026535-8.565659-2.091049-4.289337c-14.01474,11.710899-33.584045,17.518387-55.708328,9.646439
			c-22.124481-7.871994-30.893509-28.423363-32.729385-34.119522c-1.751389-5.434036-4.068878-6.752144-4.07843,0.784317
			c-0.025162,19.849823,8.784943,31.613785,11.714951,35.045769c2.941589,3.414886,4.538742,6.595467,2.912125,8.568909
			c-4.318542,5.239525-9.603882,11.104744-9.783478,13.35453c-0.188263,2.356689,0.369781,3.306358-0.588913,6.091705
			c-0.958679,2.7854-4.875557,7.091431-10.306343,13.939423c-3.096161,3.925949-1.204407,8.059906,1.405281,10.95726
			c3.148659,3.462204,5.153656,7.454346,8.99234,9.251709c3.838486,1.797363,7.429184,0.468796,11.902527,1.294617
			c4.401825,0.812576,9.936356,3.393021,14.282181,11.17363c6.283264,11.286255,13.635147,29.177002,25.8741,43.82048
			c5.466949,6.506042,5.280975,17.945816,5.304321,21.908508c0.351944,34.164215-17.75499,66.538696-29.275009,87.0224
			c-2.729752,4.85379-2.230759,8.840576,1.414703,8.871582c4.155289,0.044983,19.459961,0,21.960739,0
			c2.989944,0,4.627594-3.185089,4.844803-6.391235c1.891129-27.914124,17.97644-79.667419,29.949844-88.438446
			c20.065948,12.484161,40.131226,39.817993,30.382706,86.665833c-0.525742,2.526001-3.008713,8.177795,2.971359,8.177795
			c0,0,16.20813,0,18.573547,0c2.445801,0,6.606995-1.303192,6.360443-5.795441
			c-1.006012-18.337189-16.225952-57.15332-20.273773-79.947952c-2.558243-14.406296,10.444489-40.600525,52.63678-19.828491
			c17.170959-15.469116,38.825867-5.737335,29.543365,22.940308c-9.188873,28.389328-16.888306,40.650284-48.397369,74.139175
			c-3.611969,3.838989-3.46347,8.515991,2.213867,8.515991c2.82959,0,16.090332-0.02359,19.006683-0.02359
			c4.340881,0,6.084656-1.214478,7.425873-4.720978c1.341431-3.50647,15.747223-49.45932,44.07312-70.764648
			c2.190186-1.647247,4.104675-9.899246,8.49472-26.422455c13.779999,17.898621,16.641968,51.588196-7.525452,94.204285
			c-2.474792,4.364014-1.147308,7.68985,1.636566,7.68985c1.639221,0,14.18576,0.037537,18.137695,0.037537
			c3.417511,0,4.403076-1.853882,5.735809-6.965942c1.631165-6.257568,2.186859-9.6875,4.353668-15.790039
			c1.343719-3.784454,2.216156-4.371552,16.724243-4.217804c4.637817,0.049133,4.090302-2.508698,4.090302-6.39624
			C415.269104,247.759537,415.584106,189.1754,411.295868,169.014908z M360.317719,149.883133
			c4.750244,8.697235,4.671722,14.128143,3.311279,18.484192c-1.360657,4.356018-7.415741,6.807083-8.74292,6.343552
			c-0.160156-9.332047-2.999878-16.669617-7.388489-23.070145C351.545227,151.028244,356.25708,150.337936,360.317719,149.883133z
			 M322.508606,154.382004c2.744019,10.278793,2.487457,24.32518-1.384705,28.258575
			c-6.109039,6.207611-33.985535,4.774811-41.95224,3.571426c-2.05191-0.309677-4.469696-1.020447-5.497406-6.612473
			c-1.225281-6.653488-1.796844-18.730255-2.178131-26.803696C288.241272,154.989471,305.656219,155.459976,322.508606,154.382004z
			 M223.947464,174.284805c2.259811-7.50177,4.309235-20.418289,5.514664-30.677261
			c5.361771,1.635086,10.80304,3.108017,16.258408,4.391479c-3.670883,23.428192-10.762497,30.355255-14.635498,31.909485
			C228.104401,181.104599,221.687653,181.78656,223.947464,174.284805z M174.775711,188.032608
			c-4.721115-6.210663-11.401749-22.38269-16.716812-26.57901c-10.205627-8.06424-18.959686-1.707153-22.966599-6.500183
			c-4.26503-5.132538-6.124695-5.803619-2.139084-10.692963c0,0,4.663879-6.356476,6.541168-8.889435
			s1.319946-7.242554,2.074051-9.353523c0.746033-2.102493,5.556732-8.393631,10.129471-12.378632
			c5.053223-4.403435,9.57193-2.460106,25.471024,7.142609c19.313919,11.665016,25.310287,9.26638,18.694305,19.734795
			C191.682327,147.13147,178.100647,166.372086,174.775711,188.032608z M387.665222,179.474411
			c-1.096039,17.515427-5.186279,42.684631-11.212036,45.350281c-6.02597,2.665634-15.900299-13.435806-64.865204-14.314362
			c-34.773865-0.623901-61.20636,4.164978-66.114105,35.89006c-0.357315,2.309616-1.677643,1.988495-2.661743,0.921356
			c-9.546204-10.352051-18.660828-15.449036-32.735123-23.645065c-14.074509-8.196045-23.594635-19.598892-25.343994-30.565247
			c-1.749374-10.9664,2.591187-26.440536,22.491196-53.356659c2.762405-3.736343,3.49321-2.905716,14.597,1.304031
			c-0.850616,17.982101-5.100067,28.091751-6.958969,37.380386c-1.886169,9.425034,8.126526,11.339478,17.337112,9.167801
			c9.210571-2.171677,17.718216-11.892502,21.579224-37.867615c3.613846,0.737,7.03804,1.391556,10.680191,1.974701
			c0.526978,26.934875,1.959717,32.964844,3.058716,35.486191c2.161865,4.959183,6.956177,6.543869,11.014526,6.86496
			c21.201752,1.677505,41.569672,1.169174,48.908966-5.991974c7.339294-7.161133,4.623505-24.809052,2.609009-34.32016
			c3.315826-0.311752,6.573822-0.622559,9.87561-1.06337c6.891846,8.116791,8.066437,17.339584,8.066437,23.03479
			c0,6.181381,6.532074,8.844482,16.12973,2.246384c9.597626-6.598099,8.101685-18.165344,2.967865-28.708099
			C388.823517,147.294113,388.869598,160.227936,387.665222,179.474411z M403.134644,268.549591
			c-0.367096,2.552032-2.900452,2.945099-3.367798-0.485687c-0.92514-6.791168-5.06958-25.842682-6.209717-32.362396
			c-1.068207-6.109253,2.893066-28.253571,4.08548-43.72995c0.102722-1.33403,2.124298-1.566086,2.717072-0.366211
			C408.447784,208.695923,404.647705,258.030579,403.134644,268.549591z"/>
	</g>
	<g>
		<g>
			<g>
				<g>
					<path class="st0" d="M290.896576,420.291046v-39.439514c0-6.712494-0.10556-18.821686-23.054626-18.821686
						c-8.696167,0-14.631531,1.702606-17.825821,2.737457c-3.877457,1.249542-5.142822,2.729431-5.142822,4.68576v50.947174
						c0,1.952515,0.562408,2.171234,2.182846,2.171234h5.591873c1.585449,0,2.405365-0.218719,2.405365-2.280426v-46.839355
						c0-2.643494,4.314896-5.248199,12.331741-5.248199c13.346985,0,13.346985,8.559662,13.346985,13.93277v38.154785
						c0,2.061707,0.691132,2.280426,2.518738,2.280426h6.290588C290.791016,422.352753,290.896576,421.31012,290.896576,420.291046z
						"/>
				</g>
				<path class="st0" d="M351.375671,393.222229c0-13.710052-4.35791-22.507812-10.972809-26.955444
					c-4.123596-2.862427-9.621674-4.236938-14.885468-4.236938c-5.21698,0-10.715088,1.374512-14.826874,4.236938
					c-6.622681,4.447632-10.961182,13.245392-10.961182,26.955444c0,13.592896,4.338501,22.382874,10.961182,26.838318
					c4.111786,2.854614,9.609894,4.248535,14.826874,4.248535c5.263794,0,10.761871-1.393921,14.885468-4.248535
					C347.017761,415.605103,351.375671,406.815125,351.375671,393.222229z M340.840088,393.222229
					c0,10.746307-2.171021,17.681305-5.3573,20.680267c-3.092773,2.971741-5.951172,3.764496-9.965393,3.764496
					c-3.983002,0-6.841431-0.792755-9.902771-3.764496c-3.225464-2.998962-5.392731-9.93396-5.392731-20.680267
					c0-10.871216,2.167267-17.806427,5.392731-20.820984c3.06134-2.948181,5.919769-3.748688,9.902771-3.748688
					c4.014221,0,6.87262,0.800507,9.965393,3.748688C338.669067,375.415802,340.840088,382.351013,340.840088,393.222229z"/>
				<g>
					<path class="st0" d="M392.088165,367.965393c0-4.123596-6.974182-5.935547-14.846466-5.935547
						c-6.169861,0-10.059113,1.015228-13.01886,1.811951c-3.897278,1.050446-5.27179,2.737274-5.27179,4.685791v52.106964
						c0,1.84317,0.69516,1.93692,2.296204,1.93692h5.818176c1.374512,0,2.069702-0.09375,2.069702-1.93692v-47.745087
						c0-3.09671,2.397552-5.158417,5.818176-5.158417c7.325653,0,8.450256,5.388763,12.347321,5.388763
						C389.932526,373.119812,392.088165,371.265045,392.088165,367.965393z"/>
				</g>
				<path class="st0" d="M442.35199,416.29245v-71.740967c0-2.061676-0.570221-2.311584-2.280426-2.311584h-5.615265
					c-1.913544,0-2.15564,0.702942-2.15564,2.534302v20.707642c-3.561188-1.858765-7.098938-3.108337-12.472076-3.108337
					c-17.704865,0-26.818939,16.791016-26.818939,30.848724c0,20.820984,11.519409,31.086853,28.911804,31.086853
					C430.449921,424.309082,442.35199,420.060547,442.35199,416.29245z M432.300659,412.981018
					c0,2.983368-4.802948,4.561005-10.066711,4.561005c-11.066589,0-18.954437-9.246826-18.954437-25.116302
					c0-13.83902,7.536377-23.097595,18.048553-23.097595c5.95871,0,8.793732,1.823547,10.972595,3.666718V412.981018z"/>
				<path class="st0" d="M467.132416,346.941467c-0.109375-3.41684-2.850616-5.728638-6.036926-5.728638
					c-3.654907,0-6.310425,2.52655-6.310425,6.072113c0,3.202087,2.311798,5.923737,6.162079,5.923737
					C464.859802,353.208679,467.233978,350.127747,467.132416,346.941467z M466,420.525208v-54.96521
					c0-1.827545-0.460846-2.167236-2.280426-2.167236h-5.935547c-1.944519,0-1.944519,0.667755-1.944519,2.167236v54.96521
					c0,1.597229,0,2.046265,1.710205,2.046265h6.169861C465.437805,422.571472,466,422.477722,466,420.525208z"/>
				<path class="st0" d="M567.363342,421.31012c0-0.550598-0.335693-0.909882-0.804321-1.499481l-21.687927-28.650269
					l-0.117126-0.124969c7.552185-5.58786,15.526001-14.494995,20.360107-24.100861
					c0.539062-1.140411,0.632629-1.593262,0.632629-2.280609c0-1.030853-0.570007-1.261169-2.046143-1.261169h-5.373108
					c-2.03833,0-2.952209-0.097748-3.537781,1.714203c-3.194275,9.809021-11.644592,20.340576-20.219604,25.350647
					c-0.335876,0.249908-0.445251,0.577789-0.445251,0.702759c0,0.234314,0.109375,0.453033,0.226501,0.577972l20.336792,29.134521
					c1.155823,1.698608,1.601013,1.698608,3.412842,1.698608h7.770691
					C566.238708,422.571472,567.363342,422.477722,567.363342,421.31012z M532.508179,420.872864v-77.348236
					c0-1.624451-0.780945-1.624451-2.178833-1.624451h-6.029114c-1.257385,0-1.944763,0.230347-1.944763,1.839203v77.020142
					c0,1.593231,0.343689,1.811951,1.944763,1.811951h6.029114C531.945984,422.571472,532.508179,422.571472,532.508179,420.872864z
					"/>
				<g>
					<path class="st0" d="M514.327087,406.592621c0-19.20816-28.115295-16.22879-28.115295-28.911804
						c0-4.342285,3.428406-8.80954,9.816803-8.80954c6.646332,0,8.364319,4.35788,11.769531,4.35788
						c1.718018,0,4.123596-1.027039,4.123596-4.014221c0-4.322693-7.427246-6.841431-15.307312-6.841431
						c-10.402618,0-19.516632,5.591888-19.516632,16.213196c0,9.824615,6.958557,14.057556,15.291473,17.587708
						c6.638306,2.768463,12.784821,5.267578,12.784821,11.558411c0,4.685974-3.772339,10.043335-11.745941,10.043335
						c-8.013062,0-10.309052-5.935364-14.182709-5.935364c-1.936737,0-4.350098,0.796539-4.350098,3.764313
						c0,4.685944,9.161011,8.703979,18.407806,8.703979C503.58078,424.309082,514.327087,418.822784,514.327087,406.592621z"/>
				</g>
				<g>
					<path class="st0" d="M46.645103,420.291046v-39.439514c0-6.712494-0.113159-18.821686-23.074015-18.821686
						c-8.684595,0-14.627739,1.702606-17.825832,2.737457c-3.881457,1.249542-5.11543,2.729431-5.11543,4.68576v50.947174
						c0,1.952515,0.554408,2.171234,2.155454,2.171234h5.595664c1.593248,0,2.413364-0.218719,2.413364-2.280426v-46.839355
						c0-2.643494,4.3343-5.248199,12.319937-5.248199c13.35078,0,13.35078,8.559662,13.35078,13.93277v38.154785
						c0,2.061707,0.706757,2.280426,2.530334,2.280426h6.287014C46.531944,422.352753,46.645103,421.31012,46.645103,420.291046z"/>
				</g>
				<path class="st0" d="M107.104584,393.222229c0-13.710052-4.349899-22.507812-10.964806-26.955444
					c-4.123573-2.862427-9.60228-4.236938-14.869858-4.236938c-5.248184,0-10.722885,1.374512-14.838661,4.236938
					c-6.622711,4.447632-10.953213,13.245392-10.953213,26.955444c0,13.592896,4.330502,22.382874,10.953213,26.838318
					c4.115776,2.854614,9.590477,4.248535,14.838661,4.248535c5.267578,0,10.746284-1.393921,14.869858-4.248535
					C102.754684,415.605103,107.104584,406.815125,107.104584,393.222229z M96.600418,393.222229
					c0,10.746307-2.178848,17.681305-5.376938,20.680267c-3.08873,2.971741-5.935547,3.764496-9.95356,3.764496
					c-3.979218,0-6.837631-0.792755-9.934158-3.764496c-3.186302-2.998962-5.353546-9.93396-5.353546-20.680267
					c0-10.871216,2.167244-17.806427,5.353546-20.820984c3.096527-2.948181,5.954941-3.748688,9.934158-3.748688
					c4.018013,0,6.86483,0.800507,9.95356,3.748688C94.42157,375.415802,96.600418,382.351013,96.600418,393.222229z"/>
				<path class="st0" d="M211.463074,393.222229c0-13.710052-4.338303-22.507812-10.972809-26.955444
					c-4.111771-2.862427-9.582474-4.236938-14.85025-4.236938c-5.259995,0-10.742493,1.374512-14.858063,4.236938
					c-6.611115,4.447632-10.957214,13.245392-10.957214,26.955444c0,13.592896,4.3461,22.382874,10.957214,26.838318
					c4.11557,2.854614,9.598068,4.248535,14.858063,4.248535c5.267776,0,10.73848-1.393921,14.85025-4.248535
					C207.124771,415.605103,211.463074,406.815125,211.463074,393.222229z M200.966705,393.222229
					c0,10.746307-2.171051,17.681305-5.388733,20.680267c-3.092728,2.971741-5.939346,3.764496-9.937958,3.764496
					c-3.986832,0-6.853027-0.792755-9.94577-3.764496c-3.19429-2.998962-5.357544-9.93396-5.357544-20.680267
					c0-10.871216,2.163254-17.806427,5.357544-20.820984c3.092743-2.948181,5.958939-3.748688,9.94577-3.748688
					c3.998611,0,6.84523,0.800507,9.937958,3.748688C198.795654,375.415802,200.966705,382.351013,200.966705,393.222229z"/>
				<g>
					<path class="st0" d="M158.879669,364.560333c0-1.167572-0.913681-1.167572-1.487686-1.167572h-5.705032
						c-0.812302,0.105377-1.031036,0.449036-1.374512,1.604858l-14.854263,43.516144l-15.428268-43.28183
						c-0.5662-1.608856-0.792725-1.839172-2.510925-1.839172h-6.954597c-0.472435,0-1.604843,0-1.604843,1.374542
						c0,0.46463,0.199127,1.026825,0.456841,1.604828l20.668655,54.38739c0.57399,1.362915,0.804321,1.718201,1.702408,1.811951
						h4.475052c1.351135,0,1.601044-0.09375,2.175049-1.698608l19.985275-54.500732
						C158.879669,364.99762,158.879669,364.767303,158.879669,364.560333z"/>
				</g>
			</g>
		</g>
		<g>
			<g>
				<path class="st0" d="M576.086731,324.685059h3.623657c1.93689,0,5.005981,0,5.005981,2.93634
					c0,2.979492-3.264404,2.979492-4.763855,2.979492h-3.865784V324.685059z M572.900513,341.678833h3.186218v-8.344727h1.874329
					c2.538269,0,3.490906,0.984039,5.872803,5.248077l1.74939,3.096649h3.873596l-2.397522-3.811188
					c-2.444336-3.935974-3.436157-4.533539-4.568542-4.9552v-0.09375c4.08429-0.234314,5.607117-3.311188,5.607117-5.497986
					c0-1.593018-0.749695-2.998901-1.889893-3.935974c-1.632202-1.40567-4.217041-1.40567-6.49762-1.40567h-6.809875V341.678833z
					 M580.718445,313.450348c-10.035339,0-18.329285,8.106232-18.329285,18.325287
					c0,10.121277,8.200195,18.317505,18.329285,18.317505c10.152527,0,18.305908-8.231384,18.305908-18.317505
					C599.024353,321.619141,590.777405,313.450348,580.718445,313.450348z M580.679504,316.511627
					c8.465698,0,15.322388,6.794312,15.322388,15.264008c0,8.414917-6.856689,15.287384-15.322388,15.287384
					c-8.442322,0-15.267822-6.872467-15.267822-15.287384C565.411682,323.305939,572.237183,316.511627,580.679504,316.511627z"/>
			</g>
		</g>
	</g>
</g>
</svg>
